<svg width="22" height="22" viewBox="0 0 22 22" fill="none" xmlns="http://www.w3.org/2000/svg">
    <defs>
        <clipPath id="clip0_44_947">
            <rect width="22" height="22" fill="white"/>
        </clipPath>
    </defs>
    <g clip-path="url(#clip0_44_947)">
        <path d="M8.55553 9.77786H1.2222C0.548417 9.77786 0 9.22932 0 8.55553V1.2222C0 0.548417 0.548417 0 1.2222 0H8.55553C9.22932 0 9.77773 0.548417 9.77773 1.2222V8.55553C9.77786 9.22932 9.22932 9.77786 8.55553 9.77786ZM1.2222 1.2222V8.55553H8.55553V1.2222H1.2222ZM1.2222 0.6111L1.22104 1.2222H1.2222V0.6111Z" fill="#69CDF9"/>
        <path d="M20.7778 9.77786H13.4445C12.7701 9.77786 12.2223 9.22945 12.2223 8.55566V1.2222C12.2223 0.548417 12.7702 0 13.4445 0H20.7778C21.4523 0 22 0.548417 22 1.2222V8.55553C22 9.22932 21.4523 9.77786 20.7778 9.77786ZM13.4445 1.2222V8.55553H20.7778V1.2222H13.4445ZM13.4445 0.6111L13.4433 1.2222H13.4445V0.6111Z" fill="#69CDF9"/>
        <path d="M20.7778 22H13.4445C12.7701 22 12.2223 21.4521 12.2223 20.7778V13.4445C12.2223 12.77 12.7702 12.2223 13.4445 12.2223H20.7778C21.4523 12.2223 22 12.7702 22 13.4445V20.7778C22 21.4522 21.4523 22 20.7778 22ZM13.4445 13.4445V20.7778H20.7778V13.4445H13.4445ZM13.4445 12.8334L13.4433 13.4445H13.4445V12.8334Z" fill="#69CDF9"/>
        <path d="M8.55553 22H1.2222C0.548417 22 0 21.4521 0 20.7778V13.4445C0 12.77 0.548417 12.2223 1.2222 12.2223H8.55553C9.22932 12.2223 9.77773 12.7702 9.77773 13.4445V20.7778C9.77786 21.4522 9.22932 22 8.55553 22ZM1.2222 13.4445V20.7778H8.55553V13.4445H1.2222ZM1.2222 12.8334L1.22104 13.4445H1.2222V12.8334Z" fill="#69CDF9"/>
    </g>
</svg>
