<svg width="24" height="24" viewBox="0 0 24 24" fill="none" xmlns="http://www.w3.org/2000/svg">
    <defs>
        <clipPath id="clip0_67_43">
            <rect width="24" height="24" fill="white"/>
        </clipPath>
    </defs>
    <g clip-path="url(#clip0_67_43)">
        <path d="M18.4089 9.51295V9.51285C18.5655 10.1139 19.1129 10.5589 19.7623 10.5589C20.5333 10.5589 21.1605 9.93163 21.1605 9.16059C21.1605 8.38955 20.5333 7.76227 19.7623 7.76227C19.1129 7.76227 18.5655 8.2073 18.4089 8.80832H13.3645C13.3626 8.79984 13.3607 8.79136 13.3587 8.78292L17.7269 6.26092C17.9927 6.53035 18.3548 6.67749 18.7247 6.67749C18.9617 6.67749 19.2018 6.61726 19.4215 6.49042C20.0892 6.10487 20.3188 5.248 19.9333 4.58027C19.5479 3.91254 18.6909 3.68304 18.0232 4.06845C17.4608 4.39315 17.2093 5.05221 17.3742 5.65103L13.0245 8.16234C13.0161 8.1532 13.0074 8.14416 12.9987 8.13525L13.7726 6.79487C13.8699 6.6264 13.8122 6.41096 13.6437 6.3137C13.4752 6.21639 13.2598 6.27409 13.1625 6.4426L12.3953 7.77155C12.381 7.76733 12.3668 7.76306 12.3523 7.75931V2.75164C12.9533 2.59508 13.3983 2.04772 13.3983 1.39832C13.3983 0.627278 12.771 0 12 0C11.2289 0 10.6016 0.627278 10.6016 1.39832C10.6016 2.04772 11.0466 2.59508 11.6477 2.75164V7.75941C11.6333 7.76316 11.619 7.76742 11.6048 7.77164L9.10052 3.43418C9.54274 2.99806 9.65444 2.30155 9.32978 1.73919C9.14304 1.41571 8.84149 1.18434 8.48074 1.08768C8.11985 0.990932 7.74307 1.04062 7.41969 1.22737C7.0962 1.41412 6.86488 1.71566 6.76818 2.07641C6.67147 2.43716 6.72111 2.81398 6.90786 3.13747C7.09456 3.46095 7.39616 3.69232 7.75695 3.78898C7.87742 3.82127 7.99967 3.83721 8.12112 3.83721C8.24609 3.83721 8.37012 3.82001 8.49054 3.78659L11.0013 8.13534C10.9926 8.14425 10.9839 8.1533 10.9755 8.16244L6.62577 5.65112C6.79072 5.05235 6.53919 4.39329 5.97684 4.06854C5.30911 3.68299 4.45219 3.91259 4.06669 4.58036C3.68119 5.24809 3.91079 6.10496 4.57852 6.49051C4.79822 6.61735 5.03822 6.67759 5.27536 6.67759C5.6452 6.67759 6.00735 6.53045 6.27313 6.26101L10.6413 8.78306C10.6393 8.7915 10.6374 8.79998 10.6355 8.80846H5.59101C5.43445 8.20739 4.88709 7.76241 4.23769 7.76241C3.46665 7.76241 2.83942 8.38969 2.83942 9.16073C2.83942 9.93177 3.46665 10.559 4.23769 10.559C4.88709 10.559 5.43445 10.114 5.59101 9.51299H10.6603C10.6615 9.51712 10.6626 9.52129 10.6638 9.52541L6.27351 12.0602C5.83738 11.6179 5.14087 11.5062 4.57847 11.8309C3.91079 12.2164 3.68115 13.0734 4.06664 13.7411C4.25339 14.0646 4.55494 14.2959 4.91573 14.3926C5.0362 14.4249 5.15845 14.4408 5.27995 14.4408C5.5222 14.4408 5.7614 14.3773 5.97684 14.2529C6.53919 13.9282 6.79072 13.2691 6.62577 12.6703L10.7732 10.2758C10.764 10.3368 10.759 10.3987 10.759 10.4611L10.7589 10.6059L8.49063 14.5348C8.25307 14.4688 8.00135 14.467 7.757 14.5324C7.3962 14.6291 7.0947 14.8605 6.90791 15.1839C6.72116 15.5074 6.67157 15.8843 6.76822 16.245C6.86492 16.6058 7.09625 16.9073 7.41973 17.094C7.63517 17.2184 7.87432 17.282 8.11662 17.282C8.23807 17.282 8.36032 17.266 8.48079 17.2338C8.84158 17.1371 9.14308 16.9057 9.32983 16.5823C9.38617 16.4847 9.42982 16.3822 9.46094 16.2767C10.083 17.0759 10.598 18.0059 10.9924 19.0441C11.2982 19.8493 11.8793 20.5309 12.641 20.9845L12.4434 23.6214C12.4361 23.7192 12.4699 23.8155 12.5365 23.8874C12.6031 23.9592 12.6967 24 12.7947 24H16.7085C16.8065 24 16.9001 23.9592 16.9667 23.8874C17.0334 23.8155 17.0671 23.7192 17.0598 23.6215L16.8628 20.9843C17.6917 20.489 18.3144 19.7109 18.5882 18.8187C18.6452 18.6327 18.5407 18.4356 18.3547 18.3786C18.1689 18.3217 17.9718 18.4261 17.9147 18.612C17.6738 19.3973 17.097 20.076 16.3322 20.474C16.2073 20.5391 16.1331 20.6723 16.1436 20.8127L16.3291 23.2955H13.1744L13.3604 20.8128C13.3709 20.6723 13.2967 20.5391 13.1717 20.474C12.4625 20.105 11.9225 19.5084 11.651 18.7939C11.2102 17.6334 10.6257 16.5969 9.91389 15.7133L9.80224 15.5747C9.66367 15.3282 9.75606 15.0961 9.89148 14.9591C10.0242 14.8249 10.2527 14.7329 10.4961 14.8769C10.6252 14.9533 10.7233 15.0582 10.7961 15.1977C10.871 15.3415 11.0346 15.4157 11.1921 15.377C11.3497 15.3385 11.4606 15.1973 11.4607 15.0351L11.4636 10.4613C11.4636 10.3071 11.5299 10.1586 11.6455 10.0536C11.7622 9.94761 11.9128 9.89765 12.0697 9.91283C12.348 9.93983 12.566 10.1899 12.566 10.4822V13.5485V14.9559C12.566 15.1504 12.7237 15.3081 12.9182 15.3081C13.1128 15.3081 13.2705 15.1504 13.2705 14.9559V13.5484C13.2705 13.2548 13.5405 12.9973 13.8483 12.9973C14.1522 12.9973 14.3995 13.2445 14.3995 13.5484C14.3995 13.549 14.3996 13.5497 14.3996 13.5503V14.9559C14.3996 15.1504 14.5573 15.3081 14.7518 15.3081C14.9464 15.3081 15.1041 15.1504 15.1041 14.9559V13.5612C15.1042 13.5569 15.1047 13.5527 15.1047 13.5484C15.1047 13.2445 15.352 12.9973 15.6559 12.9973C15.9286 12.9973 16.1595 13.1972 16.2005 13.4651L16.2044 14.9559C16.2044 15.1504 16.3621 15.3081 16.5566 15.3081C16.7512 15.3081 16.9089 15.1504 16.9089 14.9559V14.0655C16.9399 13.806 17.1678 13.6038 17.444 13.6038H17.5038C17.8009 13.6038 18.0428 13.838 18.0428 14.1257V16.3053C18.0428 16.4998 18.2004 16.6575 18.395 16.6575C18.5896 16.6575 18.7473 16.4999 18.7473 16.3053V14.4399C18.8598 14.4377 18.9729 14.4224 19.0845 14.3926C19.4453 14.2959 19.7468 14.0645 19.9335 13.741C20.319 13.0733 20.0895 12.2164 19.4217 11.8309C18.8592 11.5062 18.1627 11.6179 17.7266 12.0602L13.3363 9.52537C13.3376 9.52129 13.3386 9.51707 13.3398 9.51295H18.4089ZM19.7623 8.46679C20.1448 8.46679 20.4561 8.77804 20.4561 9.16063C20.4561 9.54323 20.1448 9.85447 19.7623 9.85447C19.3796 9.85447 19.0684 9.54323 19.0684 9.16063C19.0684 8.77804 19.3796 8.46679 19.7623 8.46679ZM18.3754 4.67857C18.4823 4.61683 18.6009 4.58533 18.7211 4.58533C18.7814 4.58533 18.8421 4.59325 18.9018 4.60929C19.0809 4.65724 19.2305 4.77208 19.3231 4.93258C19.5144 5.26389 19.4005 5.68904 19.0692 5.88034C18.9087 5.97301 18.7217 5.99762 18.5427 5.94967C18.3637 5.90172 18.214 5.78687 18.1214 5.62637C17.9302 5.29506 18.0441 4.86991 18.3754 4.67857ZM8.4657 3.03917C8.3052 3.13184 8.11821 3.15645 7.93925 3.1085C7.76023 3.06054 7.61056 2.9457 7.51794 2.7852C7.42531 2.6247 7.40066 2.43772 7.44861 2.25871C7.49656 2.07974 7.61136 1.93011 7.77186 1.83744C7.87878 1.77571 7.99742 1.74416 8.11765 1.74416C8.17793 1.74416 8.23859 1.75208 8.29835 1.76811C8.47732 1.81607 8.62699 1.93091 8.71962 2.09141C8.91096 2.42267 8.79705 2.84787 8.4657 3.03917ZM5.87849 5.62637C5.78587 5.78687 5.6362 5.90167 5.45718 5.94967C5.27831 5.99762 5.09128 5.97301 4.93069 5.88034C4.59942 5.68904 4.48547 5.26384 4.67672 4.93258C4.76939 4.77208 4.91901 4.65729 5.09803 4.60929C5.15779 4.59325 5.21845 4.58533 5.27873 4.58533C5.39896 4.58533 5.5176 4.61688 5.62453 4.67857C5.95584 4.86991 6.06979 5.29506 5.87849 5.62637ZM4.23764 9.85443C3.8551 9.85443 3.54385 9.54318 3.54385 9.16059C3.54385 8.778 3.8551 8.46675 4.23764 8.46675C4.62023 8.46675 4.93148 8.778 4.93148 9.16059C4.93148 9.54318 4.62028 9.85443 4.23764 9.85443ZM5.62453 13.6426C5.46398 13.7353 5.27704 13.7599 5.09803 13.7119C4.91901 13.664 4.76934 13.5491 4.67672 13.3886C4.48547 13.0573 4.59933 12.6322 4.93069 12.4409C5.262 12.2496 5.6872 12.3635 5.87849 12.6948C6.06979 13.0262 5.95584 13.4514 5.62453 13.6426ZM8.71966 16.2299C8.62704 16.3904 8.47737 16.5052 8.29835 16.5532C8.11943 16.6011 7.93245 16.5765 7.7719 16.4838C7.61136 16.3912 7.49656 16.2415 7.44866 16.0625C7.4007 15.8835 7.42531 15.6965 7.51798 15.536C7.61065 15.3755 7.76023 15.2607 7.93925 15.2128C8.1184 15.1648 8.30524 15.1895 8.46574 15.2821C8.62624 15.3748 8.74109 15.5244 8.78899 15.7034C8.83694 15.8824 8.81233 16.0694 8.71966 16.2299ZM9.10957 14.8962C9.10652 14.8931 9.10375 14.8899 9.10071 14.8869L9.1555 14.792C9.13849 14.8261 9.12311 14.8609 9.10957 14.8962ZM10.7567 14.218C10.2962 13.998 9.75944 14.0906 9.39058 14.4635C9.32805 14.5267 9.27447 14.595 9.22802 14.6664L10.7581 12.0162L10.7567 14.218ZM11.3062 1.39832C11.3062 1.01573 11.6175 0.70448 12 0.70448C12.3825 0.70448 12.6938 1.01573 12.6938 1.39832C12.6938 1.78091 12.3825 2.09216 12 2.09216C11.6175 2.09216 11.3062 1.78091 11.3062 1.39832ZM12.6423 9.37387C12.4919 9.28631 12.3211 9.22931 12.1375 9.21154C11.8658 9.1852 11.5943 9.24918 11.364 9.38896C11.3269 9.30431 11.3061 9.21098 11.3061 9.11273C11.3061 8.73014 11.6174 8.41889 11.9999 8.41889C12.3825 8.41889 12.6937 8.73014 12.6937 9.11273C12.6937 9.20512 12.6754 9.29324 12.6423 9.37387ZM18.1215 12.6948C18.3128 12.3635 18.738 12.2496 19.0693 12.4409C19.4006 12.6322 19.5145 13.0574 19.3232 13.3886C19.2306 13.5491 19.0809 13.6639 18.9019 13.7119C18.829 13.7315 18.7549 13.7383 18.6817 13.7339C18.5728 13.4161 18.3354 13.1563 18.0305 13.0151C18.0342 12.9058 18.063 12.796 18.1215 12.6948ZM13.2704 12.4323V12.0654L13.4409 12.3608C13.3822 12.3808 13.3251 12.4044 13.2704 12.4323ZM17.3742 12.6701C17.3529 12.7476 17.3394 12.8261 17.332 12.9048C17.145 12.9213 16.9697 12.9783 16.8156 13.0675C16.6255 12.6088 16.1736 12.2926 15.6558 12.2926C15.3012 12.2926 14.9805 12.4403 14.752 12.6774C14.615 12.5353 14.4448 12.4256 14.2542 12.3603L13.2704 10.6565V10.482C13.2704 10.4178 13.2657 10.3546 13.2568 10.2929L17.3742 12.6701Z" fill="#69CDF9"/>
        <path d="M17.2318 2.07637C17.1351 1.71557 16.9038 1.41403 16.5803 1.22732C16.2568 1.04057 15.88 0.990887 15.5192 1.08764C15.1584 1.18429 14.8569 1.41567 14.6702 1.73915C14.3455 2.30156 14.4572 2.99807 14.8994 3.43415L14.4004 4.29853C14.3031 4.467 14.3608 4.68243 14.5293 4.7797C14.5848 4.81172 14.6454 4.82695 14.7051 4.82695C14.8268 4.82695 14.9452 4.76376 15.0105 4.65075L15.5094 3.78656C15.6298 3.81998 15.7539 3.83718 15.8788 3.83718C16.0002 3.83718 16.1225 3.8212 16.243 3.78895C16.6038 3.69229 16.9054 3.46092 17.0921 3.13743C17.2789 2.81395 17.3285 2.43712 17.2318 2.07637ZM16.4819 2.78517C16.3893 2.94567 16.2396 3.06047 16.0606 3.10847C15.8817 3.15647 15.6947 3.13181 15.5342 3.03914C15.2029 2.84789 15.0889 2.42268 15.2802 2.09137C15.3729 1.93087 15.5225 1.81607 15.7015 1.76807C15.7613 1.75209 15.822 1.74412 15.8822 1.74412C16.0024 1.74412 16.1211 1.77567 16.228 1.8374C16.3886 1.93007 16.5034 2.0797 16.5513 2.25867C16.5993 2.43768 16.5746 2.62467 16.4819 2.78517Z" fill="#69CDF9"/>
    </g>
</svg>
